<svg width="1947" height="720" viewBox="0 0 1947 720" fill="none" xmlns="http://www.w3.org/2000/svg">
<path d="M1816.03 247.946C1801.96 317.121 1745.8 381.707 1767.72 448.806C1789.21 514.584 1884.62 556.195 1946.5 592.165L1946.5 8.00049C1916 -11.4998 1887.33 10.9993 1863 28.4993C1816.11 84.6476 1830.6 176.258 1816.03 247.946Z" fill="#61CEB3" fill-opacity="0.2"/>
<path d="M130.802 352.197C110.872 291.282 135.142 207.24 92.9722 164.287C48.9497 132.517 13.3149 127.525 1.00024 129L1.00026 720C45 686 17 708 69.0647 669.451C122.274 624.88 195.312 585.759 208.573 517.614C221.894 449.161 150.638 412.824 130.802 352.197Z" fill="url(#paint0_linear_11_34)" fill-opacity="0.4"/>
<path d="M1 391C15 394.5 57.6 394.2 116 365C189 328.5 377 203 556 317C735 431 871.5 343 945 307.5C991.333 284 1117.2 257 1250 337C1431 424.5 1586 365 1638.5 314C1691 263 1848.3 124 1945.5 202" stroke="white" stroke-dasharray="15 15"/>
<defs>
<linearGradient id="paint0_linear_11_34" x1="105.61" y1="128.772" x2="105.61" y2="720" gradientUnits="userSpaceOnUse">
<stop stop-color="#61CEB3"/>
<stop offset="1" stop-color="#61CEB3" stop-opacity="0"/>
</linearGradient>
</defs>
</svg>
