<svg
    xmlns:mydata="http://www.w3.org/2000/svg"
    mydata:contrastcolor="003A70"
    mydata:template="Contrast"
    mydata:presentation="2.5"
    mydata:layouttype="undefined"
    mydata:specialfontid="undefined"
    mydata:id1="724"
    mydata:id2="062"
    mydata:companyname="Suyan"
    mydata:companytagline=""
    version="1.1"
    xmlns="http://www.w3.org/2000/svg"
    xmlns:xlink="http://www.w3.org/1999/xlink"
    viewBox="0 45 550 380"
  >
    <g
      fill="#f6be00"
      fill-rule="none"
      stroke="none"
      stroke-width="1"
      stroke-linecap="butt"
      stroke-linejoin="miter"
      stroke-miterlimit="10"
      stroke-dasharray=""
      stroke-dashoffset="0"
      font-family="none"
      font-weight="none"
      font-size="none"
      text-anchor="none"
      style="mix-blend-mode: normal"
    >
      <g
        data-paper-data='{"isGlobalGroup":true,"bounds":{"x":116.9253073091167,"y":115,"width":316.1493853817666,"height":240}}'
      >
        <g data-paper-data='{"isPrimaryText":true}' fill-rule="nonzero">
          <path
            d="M149.60488,318.98767l-4.44368,-0.92577c-1.5738,-0.27773 -2.96245,0.74061 -3.24018,2.22184c-0.27773,1.48123 0.74061,2.86988 2.12926,3.14761l4.53626,0.92577c5.73975,1.29607 10.36859,6.7581 10.36859,12.59043c0,7.03583 -5.46202,12.68301 -12.3127,12.68301h-12.03497c-6.7581,0 -12.3127,-5.64718 -12.3127,-12.40528v-2.96245c0,-1.48123 -1.2035,-2.68472 -2.68472,-2.68472c-1.5738,0 -2.68472,1.2035 -2.68472,2.68472v2.96245c0,9.81313 7.86902,17.77472 17.68215,17.77472h12.03497c9.72055,0 17.77472,-7.9616 17.77472,-17.77472c0,-8.97994 -6.29521,-16.47865 -14.81227,-18.23761zM131.73758,320.93178l3.79564,0.83319h0.46288c1.29607,0 2.40699,-0.92577 2.68472,-2.12926c0.27773,-1.5738 -0.55546,-2.7773 -1.85153,-3.14761c-1.2035,-0.18515 -2.86988,-0.64804 -4.16595,-0.83319c-5.73975,-1.38865 -10.36859,-6.66552 -10.36859,-12.59043c0,-6.85067 5.5546,-12.40528 12.3127,-12.40528h12.03497c6.85067,0 12.3127,5.5546 12.3127,12.40528c0,1.48123 1.2035,2.68472 2.68472,2.68472c1.48123,0 2.7773,-1.2035 2.7773,-2.68472c0,-9.90571 -8.05417,-17.8673 -17.77472,-17.8673h-12.03497c-9.81313,0 -17.68215,7.9616 -17.68215,17.8673c0,8.70221 6.11006,16.20092 14.81227,17.8673z"
            data-paper-data='{"glyphName":"S","glyphIndex":0,"firstGlyphOfWord":true,"word":1}'
          ></path>
          <path
            d="M176.08181,324.35712l0.37031,3.42534l0.83319,2.86988l0.92577,2.49957l1.48123,3.70307l1.66638,2.7773l2.03669,2.68472l2.31442,2.7773l2.7773,2.22184l2.59215,2.22184l2.7773,1.5738l3.9808,1.75896l2.40699,0.74061l3.24018,0.83319l3.33276,0.46288l2.96245,0.09258l3.14761,-0.09258l2.96245,-0.55546l2.86988,-0.55546l3.79564,-1.29607l2.49957,-1.29607l3.05503,-1.5738l2.7773,-2.12926l2.59215,-2.31442l2.40699,-2.68472l1.75896,-2.49957c0.27773,-0.09258 0.46288,-0.37031 0.55546,-0.55546l1.48123,-2.7773l1.66638,-3.42534l0.83319,-2.59215l0.74061,-3.24018l0.37031,-3.14761l0.18515,-2.96245v-29.16166c0,-1.48123 -1.2035,-2.7773 -2.68472,-2.7773c-1.48123,0 -2.68472,1.29607 -2.68472,2.7773v28.88393c0,0.83319 -0.09258,1.85153 -0.09258,2.68472c-0.09258,0.83319 -0.37031,1.66638 -0.46288,2.49957l-0.55546,2.7773v-0.09258c-0.27773,0.92577 -0.74061,1.85153 -1.01834,2.7773l0.09258,-0.09258c-0.27773,0.83319 -0.83319,1.75896 -1.2035,2.68472v-0.09258l-1.48123,2.59215l0.09258,-0.09258c-0.55546,0.83319 -1.29607,1.66638 -1.75896,2.40699v-0.09258l-1.94411,2.22184l-2.22184,2.03669h0.09258l-2.49957,1.75896l0.09258,-0.09258l-2.49957,1.48123h0.09258l-2.59215,1.2035l0.09258,-0.09258l-2.68472,0.92577l-2.68472,0.64804h0.09258l-2.7773,0.37031h0.09258l-2.59215,0.18515c-0.83319,0 -1.75896,-0.09258 -2.59215,-0.09258l-2.68472,-0.37031c-0.92577,-0.18515 -1.66638,-0.55546 -2.49957,-0.74061l-2.68472,-0.83319l0.09258,0.09258c-0.92577,-0.37031 -1.85153,-0.92577 -2.7773,-1.29607h0.09258l-2.59215,-1.48123l0.09258,0.09258l-2.40699,-1.75896h0.09258c-0.64804,-0.55546 -1.48123,-1.38865 -2.12926,-1.94411l-2.03669,-2.31442v0.09258c-0.55546,-0.74061 -1.29607,-1.5738 -1.85153,-2.40699l0.09258,0.09258l-1.38865,-2.59215v0.09258l-1.29607,-2.59215l0.09258,0.09258l-0.92577,-2.7773l-0.55546,-2.59215v0.09258l-0.37031,-2.68472v0.09258l-0.18515,-2.86988v-28.79135c0,-1.29607 -0.92577,-2.59215 -2.22184,-2.86988c-1.66638,-0.18515 -3.14761,1.29607 -3.14761,2.7773l-0.09258,22.03325v7.1284z"
            data-paper-data='{"glyphName":"U","glyphIndex":1,"word":1}'
          ></path>
          <path
            d="M304.48567,283.71595c-1.2035,-0.83319 -2.96245,-0.46288 -3.79564,0.64804l-20.18172,27.12497l-20.18172,-27.12497c-0.92577,-1.2035 -2.68472,-1.48123 -3.79564,-0.64804c-1.29607,1.01834 -1.5738,2.7773 -0.55546,3.88822v-0.09258l22.40356,30.08742v-0.18515c0,0.27773 0.18515,0.55546 0.27773,0.64804c0.37031,0.27773 0.64804,0.46288 0.83319,0.46288c0.09258,0.09258 0.37031,0.18515 0.55546,0.18515h1.01834l0.37031,-0.18515c0.37031,0 0.55546,-0.18515 0.74061,-0.37031c0.09258,-0.09258 0.27773,-0.27773 0.37031,-0.46288l22.49613,-30.18c0.74061,-1.11092 0.64804,-2.86988 -0.55546,-3.79564zM280.50831,319.45055c-1.5738,0 -2.68472,1.29607 -2.68472,2.68472v30.18c0,1.48123 1.11092,2.68472 2.68472,2.68472c1.48123,0 2.68472,-1.2035 2.68472,-2.68472v-30.18c0,-1.38865 -1.2035,-2.68472 -2.68472,-2.68472z"
            data-paper-data='{"glyphName":"Y","glyphIndex":2,"word":1}'
          ></path>
          <path
            d="M308.83678,354.72227c0.27773,0.18515 0.64804,0.27773 1.11092,0.27773c1.01834,0 1.85153,-0.55546 2.68472,-1.75896l28.42104,-57.02724l28.69877,57.21239c0.74061,1.29607 2.40699,1.94411 3.61049,1.29607c1.2035,-0.55546 1.94411,-1.94411 1.2035,-3.61049c-10.27601,-20.36687 -20.82975,-41.75209 -31.10577,-62.21153c-0.46288,-0.74061 -1.38865,-1.38865 -2.40699,-1.38865c-0.83319,0 -1.94411,0.55546 -2.40699,1.38865l-31.10577,62.21153c-0.64804,1.66638 -0.09258,3.05503 1.29607,3.61049z"
            data-paper-data='{"glyphName":"A","glyphIndex":3,"word":1}'
          ></path>
          <path
            d="M423.9096,321.57982l-32.67957,-33.23503c-0.74061,-0.83319 -1.85153,-0.92577 -2.96245,-0.55546c-0.92577,0.46288 -1.5738,1.29607 -1.5738,2.40699v62.11896c0,1.48123 1.11092,2.68472 2.68472,2.68472c1.48123,0 2.68472,-1.2035 2.68472,-2.68472v-55.54601l27.95816,28.69877c1.11092,0.92577 2.7773,1.01834 3.79564,-0.09258c1.01834,-0.92577 0.92577,-2.7773 0.09258,-3.79564zM430.38997,287.5116c-1.5738,0 -2.7773,1.2035 -2.7773,2.68472v62.11896c0,1.48123 1.2035,2.68472 2.7773,2.68472c1.38865,0 2.68472,-1.2035 2.68472,-2.68472v-62.11896c0,-1.48123 -1.29607,-2.68472 -2.68472,-2.68472z"
            data-paper-data='{"glyphName":"N","glyphIndex":4,"lastGlyphOfWord":true,"word":1}'
          ></path>
        </g>
        <g
          data-paper-data='{"isIcon":"true","iconType":"icon","rawIconId":"1574636","selectedEffects":{"container":"","transformation":"","pattern":""},"isDetailed":false,"fillRule":"evenodd","bounds":{"x":206.53365931845946,"y":115,"width":136.93268136308114,"height":136.93368136805702},"iconStyle":"standalone","suitableAsStandaloneIcon":true}'
          fill-rule="evenodd"
        >
          <g data-paper-data='{"isPathIcon":true}'>
            <path
              d="M259.30392,251.93368c-11.79706,0 -21.39111,-9.59905 -21.39111,-21.39611c0,-11.79006 9.59405,-21.39111 21.39611,-21.39611h9.98605v-19.9701h-41.36621c-11.80106,0 -21.39511,-9.59405 -21.39511,-21.39511c0,-11.80206 9.59405,-21.39611 21.39511,-21.39611h41.36621v-9.98405c0,-11.79006 9.59405,-21.39611 21.39611,-21.39611c11.79506,0 21.39611,9.59405 21.39611,21.39611c0,11.80206 -9.60105,21.39511 -21.39611,21.39511h-9.98605v19.9701h41.36621c11.79606,0 21.39511,9.59405 21.39511,21.39611c0,11.79506 -9.59905,21.39611 -21.39511,21.39611h-41.36621v9.98405c0,11.79706 -9.59905,21.39611 -21.40111,21.39611zM290.69108,126.41206c-5.50703,0 -9.98605,4.47902 -9.98605,9.98405v9.98405h9.98605c5.50403,0 9.98405,-4.48002 9.98405,-9.98405c0,-5.50503 -4.48002,-9.98405 -9.98405,-9.98405zM227.92877,157.79121c-5.50403,0 -9.98405,4.48002 -9.98405,9.98505c0,5.50603 4.48002,9.98505 9.98405,9.98505h41.36621v-19.9701zM322.07123,189.17137h-41.36621v19.9701h41.36621c5.50403,0 9.98405,-4.47902 9.98405,-9.98405c0,-5.50603 -4.48002,-9.98605 -9.98405,-9.98605zM259.30892,220.55353c-5.50403,0.005 -9.98405,4.48402 -9.98405,9.98405c0,5.50503 4.47402,9.98405 9.97905,9.98405c5.51203,0 9.99105,-4.47902 9.99105,-9.98405v-9.98405z"
            ></path>
          </g>
        </g>
      </g>
    </g>
    
  </svg>